<?xml version="1.0" standalone="no"?>
<!DOCTYPE svg PUBLIC "-//W3C//DTD SVG 20010904//EN"
 "http://www.w3.org/TR/2001/REC-SVG-20010904/DTD/svg10.dtd">
<svg version="1.0" xmlns="http://www.w3.org/2000/svg"
 width="1280.000000pt" height="720.000000pt" viewBox="0 0 1280.000000 720.000000"
 preserveAspectRatio="xMidYMid meet">

<g transform="translate(0.000000,720.000000) scale(0.100000,-0.100000)"
fill="#000000" stroke="none">
<path d="M1350 5375 c-236 -43 -468 -171 -660 -365 -688 -692 -721 -1997 -70
-2748 204 -236 458 -386 742 -438 129 -24 329 -15 461 19 486 128 892 590
1047 1193 53 207 65 308 65 559 0 254 -13 364 -64 566 -166 648 -611 1122
-1137 1214 -105 18 -282 18 -384 0z m454 -74 c4 -5 0 -12 -6 -15 -7 -3 4 -3
25 0 20 4 37 2 37 -3 0 -10 -15 -13 -58 -14 -29 -1 -36 6 -29 26 7 17 23 20
31 6z m-196 -91 l3 -70 -40 0 -41 0 0 60 c0 36 -4 60 -11 60 -5 0 -7 -4 -4
-10 3 -5 1 -10 -4 -10 -6 0 -11 4 -11 9 0 16 19 23 40 16 17 -5 20 -15 20 -61
0 -34 4 -54 11 -54 8 0 10 17 6 54 -5 48 3 76 23 76 3 0 6 -32 8 -70z m-157
38 c0 -7 4 -34 8 -60 7 -43 6 -48 -11 -48 -15 0 -18 8 -18 50 0 43 -3 52 -22
60 -21 8 -20 9 10 9 19 1 32 -4 33 -11z m307 -4 c28 -6 29 -8 21 -37 -5 -18
-9 -44 -9 -59 0 -21 -5 -28 -19 -28 -17 0 -18 4 -10 38 12 54 11 72 -7 79 -20
8 -31 -9 -39 -64 -5 -33 -11 -43 -25 -43 -10 0 -22 5 -25 10 -3 6 0 10 8 10
10 0 17 16 21 50 7 54 14 58 84 44z m-418 -14 c0 -11 -11 -13 -50 -11 -20 2
-22 0 -10 -8 8 -6 25 -11 38 -11 23 0 26 -4 36 -51 5 -22 2 -28 -16 -33 -13
-3 -27 0 -33 6 -7 8 -5 9 8 5 15 -6 16 -2 11 21 -7 29 -29 52 -52 52 -25 0 -6
25 24 31 44 10 44 10 44 -1z m-280 -17 c-1 -14 -34 -50 -52 -56 -17 -6 -33 17
-22 34 9 15 27 10 20 -6 -3 -8 -1 -15 5 -15 5 0 14 11 19 25 9 23 30 35 30 18z
m151 -131 c-20 -8 -44 -17 -53 -22 -13 -8 -18 -3 -23 21 -4 17 -13 42 -20 57
-13 23 -12 27 6 40 17 12 23 12 32 2 9 -10 8 -12 -5 -7 -22 8 -23 -2 -2 -31 8
-12 12 -22 9 -22 -3 0 -1 -9 5 -20 12 -23 38 -27 46 -7 3 8 -4 34 -15 60 -30
69 -2 68 30 -2 l27 -56 -37 -13z m732 106 c20 -8 26 -15 21 -27 -3 -9 -16 -44
-29 -78 -22 -61 -22 -62 -47 -49 -14 8 -38 19 -54 25 l-29 11 31 -4 c16 -3 36
-6 44 -8 18 -4 62 106 47 121 -21 21 -33 11 -51 -39 -18 -49 -29 -60 -41 -40
-4 6 -11 8 -16 5 -5 -4 -9 -1 -9 5 0 7 6 10 13 7 9 -3 20 11 31 44 20 53 20
53 89 27z m84 -53 c0 -8 -4 -15 -9 -15 -10 0 -11 14 -1 23 9 10 10 9 10 -8z
m12 -61 c-16 -24 -27 -49 -24 -54 13 -21 35 -8 60 34 16 28 31 43 40 40 10 -4
5 -19 -18 -59 l-32 -53 -29 17 c-16 9 -39 22 -52 29 -24 13 -33 42 -13 42 6 0
9 -7 5 -15 -12 -33 12 -12 39 34 22 36 33 47 42 39 10 -8 5 -20 -18 -54z
m-976 9 c20 -32 25 -49 17 -57 -7 -7 -15 -4 -26 12 -26 38 -66 22 -44 -17 6
-13 17 -18 28 -15 11 4 8 -1 -8 -14 l-25 -21 -19 31 c-19 30 -19 31 0 45 10 8
26 18 34 23 12 7 13 11 2 22 -11 11 -18 10 -42 -4 -17 -9 -30 -13 -30 -8 0 8
66 49 80 49 3 0 18 -20 33 -46z m1131 -52 c12 -13 14 -21 6 -26 -5 -3 -8 -11
-5 -16 4 -5 1 -9 -5 -9 -6 0 -23 -12 -37 -26 -43 -43 -51 -13 -9 34 35 38 47
60 26 47 -5 -3 -10 -1 -10 4 0 17 15 13 34 -8z m-1261 -41 c47 -62 28 -76 -25
-17 -36 41 -36 42 -57 23 -12 -11 -21 -16 -21 -12 0 8 51 56 59 56 3 -1 23
-23 44 -50z m815 0 c88 -24 195 -77 277 -135 82 -58 219 -203 283 -300 314
-473 360 -1175 111 -1713 -125 -271 -303 -468 -524 -579 -196 -99 -443 -109
-646 -27 -320 130 -586 480 -689 906 -51 211 -66 522 -35 731 90 598 439 1049
877 1133 95 18 250 11 346 -16z m507 -18 c-2 -3 -12 1 -20 8 -14 12 -16 10
-10 -11 7 -28 -34 -87 -53 -75 -9 5 -4 17 14 42 14 18 24 40 21 48 -3 8 -1 17
6 19 13 5 50 -23 42 -31z m-1368 -96 c0 -1 -15 -17 -36 -37 l-37 -37 -45 42
c-44 39 -45 42 -29 59 19 19 30 22 30 6 0 -5 -4 -7 -10 -4 -23 14 -7 -10 28
-41 42 -38 50 -41 59 -18 3 10 -8 29 -32 54 -54 56 -35 71 23 19 26 -23 48
-43 49 -43z m1440 38 c17 -26 17 -27 -28 -65 -29 -25 -47 -34 -54 -28 -7 7 3
22 30 44 36 31 39 37 27 55 -18 30 5 24 25 -6z m-1585 -118 c22 -17 35 -33 31
-42 -4 -11 -11 -9 -35 9 -69 51 -68 51 -68 34 0 -9 16 -32 35 -53 49 -52 30
-70 -26 -24 -32 25 -43 30 -50 19 -4 -7 -11 -11 -14 -7 -4 3 1 18 10 32 15 22
19 24 32 11 8 -8 17 -15 21 -15 3 0 1 5 -6 12 -24 24 -3 78 22 59 6 -4 28 -20
48 -35z m1663 20 c9 -13 25 -26 35 -29 29 -8 24 -18 -25 -55 -54 -39 -75 -48
-75 -32 0 14 46 60 61 60 19 0 0 56 -25 72 -8 5 -7 8 1 8 7 0 20 -11 28 -24z
m-40 -26 c16 -17 16 -20 3 -15 -9 4 -28 -1 -41 -10 -35 -22 -49 1 -16 26 30
23 32 23 54 -1z m-35 -50 c0 -5 -4 -10 -10 -10 -5 0 -10 5 -10 10 0 6 5 10 10
10 6 0 10 -4 10 -10z m-1778 -33 c-7 -8 -10 -16 -7 -19 3 -3 -4 -13 -16 -23
-17 -17 -22 -17 -29 -5 -14 23 -13 26 22 48 35 22 48 21 30 -1z m1943 -18 c9
-17 15 -32 13 -34 -16 -13 -90 -55 -98 -55 -24 0 -6 27 36 52 39 24 44 30 34
48 -6 11 -8 20 -6 20 3 0 13 -14 21 -31z m-1834 -53 c14 -8 15 -14 6 -33 -11
-25 -33 -33 -24 -9 4 9 -7 22 -29 35 -44 26 -53 26 -64 -1 -5 -13 -9 -17 -9
-10 -1 8 7 27 16 43 l17 28 35 -21 c20 -12 43 -26 52 -32z m1901 -71 c12 -28
13 -35 2 -35 -7 0 -18 15 -23 33 l-9 32 -1 -37 c-1 -26 -7 -41 -23 -52 -31
-22 -43 -20 -56 9 -6 14 -8 25 -3 25 5 0 11 -6 13 -12 3 -9 12 -8 32 6 21 13
27 24 23 42 -7 38 26 30 45 -11z m-2001 -22 c27 -14 49 -29 49 -33 0 -18 -17
-17 -61 5 l-48 25 -15 -22 c-9 -12 -16 -19 -16 -15 0 12 30 67 36 67 4 0 28
-12 55 -27z m2047 -69 c10 -18 9 -21 -6 -20 -12 1 -16 -6 -15 -21 2 -13 -2
-23 -7 -23 -6 0 -10 7 -10 16 0 12 -6 15 -22 10 -71 -22 -74 3 -6 35 29 13 54
24 54 24 1 0 6 -10 12 -21z m-2138 -13 c0 -6 -4 -13 -10 -16 -5 -3 -10 -12
-10 -18 0 -7 7 -4 14 6 16 21 15 21 59 2 25 -10 35 -20 31 -30 -5 -13 -9 -13
-34 0 -34 18 -60 19 -60 4 0 -8 -4 -8 -14 1 -12 9 -13 17 -4 36 11 24 28 33
28 15z m2168 -66 c-2 -2 -26 -14 -55 -28 -43 -23 -52 -24 -57 -11 -4 11 8 21
44 36 30 12 50 27 51 37 0 10 4 7 10 -8 5 -13 8 -25 7 -26z m-2178 1 c0 4 8 0
18 -8 9 -8 25 -18 35 -21 9 -4 17 -13 17 -22 0 -19 3 -19 -56 9 -44 21 -50 22
-56 7 -6 -15 -7 -15 -7 1 -2 34 10 48 30 37 10 -5 19 -7 19 -3z m2218 -85 c10
-30 10 -30 -48 -49 -47 -16 -60 -18 -64 -7 -3 9 11 19 46 30 44 15 49 20 45
41 -6 32 9 21 21 -15z m-2182 -34 c1 -1 -6 -27 -16 -57 -10 -33 -24 -56 -34
-58 -9 -2 -16 2 -16 8 0 7 7 10 15 6 8 -3 15 -1 15 3 0 5 -25 18 -55 28 -39
13 -52 22 -46 31 6 10 16 9 51 -3 45 -16 70 -14 70 5 0 10 -26 23 -82 43 -10
4 -15 12 -12 20 4 12 14 11 57 -5 29 -11 53 -20 53 -21z m2209 -77 c0 -18 -8
-25 -44 -36 -24 -7 -47 -18 -51 -24 -5 -7 -9 -2 -12 13 -4 23 0 26 49 36 29 7
53 17 53 22 0 6 -4 7 -10 4 -5 -3 -10 -1 -10 5 0 7 6 10 13 8 6 -3 12 -15 12
-28z m-2335 0 c0 -5 -2 -10 -4 -10 -3 0 -8 5 -11 10 -3 6 -1 10 4 10 6 0 11
-4 11 -10z m2240 0 c0 -5 -4 -10 -10 -10 -5 0 -10 5 -10 10 0 6 5 10 10 10 6
0 10 -4 10 -10z m123 -74 c7 -18 -104 -50 -115 -33 -10 16 -10 29 0 23 5 -3
28 1 53 9 56 18 56 17 62 1z m-2363 -262 c0 -14 -41 -20 -53 -7 -4 3 0 15 9
25 13 14 20 15 31 7 7 -6 13 -18 13 -25z m2400 0 c0 -14 -41 -20 -53 -7 -4 3
0 15 9 25 13 14 20 15 31 7 7 -6 13 -18 13 -25z m-2450 -39 c0 -27 -21 -33
-39 -12 -8 10 -7 17 1 25 20 20 38 14 38 -13z m88 13 c13 -13 -2 -38 -23 -38
-7 0 -15 -9 -18 -20 -6 -24 -29 -26 -47 -5 -10 12 -10 16 1 19 8 2 22 7 32 10
9 3 17 15 17 26 0 22 19 27 38 8z m2310 -13 c0 -27 -19 -33 -37 -12 -8 10 -7
17 1 25 20 20 36 14 36 -13z m89 8 c4 -10 1 -19 -6 -21 -7 -2 -23 -15 -35 -29
-24 -25 -46 -24 -46 2 0 7 10 15 23 17 14 2 23 11 25 26 4 26 30 30 39 5z
m-2449 -11 c2 -7 -3 -12 -12 -12 -9 0 -16 7 -16 16 0 17 22 14 28 -4z m2400 6
c-6 -18 -28 -21 -28 -4 0 9 7 16 16 16 9 0 14 -5 12 -12z m71 -368 c12 0 21
-6 21 -15 0 -11 -7 -14 -24 -9 -13 3 -40 -1 -60 -10 -28 -12 -36 -12 -36 -2 0
7 12 18 26 25 l26 11 -24 21 -23 21 36 -21 c20 -12 46 -21 58 -21z m-2449 -25
c0 -9 -9 -15 -25 -15 -15 0 -25 -6 -25 -14 0 -22 28 -27 46 -9 15 15 16 14 12
-8 -2 -20 -9 -24 -38 -24 -19 0 -45 -6 -57 -13 -20 -11 -23 -11 -23 6 0 11 12
25 28 32 l27 14 -25 4 c-47 8 -43 27 8 33 26 3 53 7 60 7 6 1 12 -5 12 -13z
m2358 -67 c-3 -20 3 -24 45 -31 29 -6 47 -14 47 -23 0 -16 0 -16 -57 -5 -41 8
-48 4 -44 -21 0 -5 -4 -8 -10 -8 -9 0 -3 83 8 103 8 14 14 7 11 -15z m-2350
-89 c12 -5 22 -12 22 -16 -1 -14 -105 -72 -109 -61 -2 6 4 17 13 23 9 7 16 21
16 31 0 16 2 16 10 4 7 -12 12 -12 21 -3 13 13 13 14 -51 32 -33 10 -33 10 10
4 25 -3 55 -9 68 -14z m2372 -40 c72 -15 68 -39 -5 -26 -34 7 -55 15 -55 24 0
16 -3 16 60 2z m-52 -67 c-11 -2 -18 -13 -18 -28 0 -31 13 -31 34 1 18 28 60
34 69 11 7 -18 -11 -86 -23 -86 -16 0 -20 18 -5 24 16 6 21 46 5 46 -5 0 -20
-11 -34 -25 -40 -40 -75 -13 -55 44 8 22 15 28 27 23 16 -6 16 -7 0 -10z
m-2280 -14 c-3 -7 -35 -20 -71 -29 -65 -16 -68 -16 -77 1 -14 26 -12 34 3 22
9 -8 27 -7 62 3 64 17 88 18 83 3z m26 -99 c8 -7 -25 -41 -75 -76 -14 -10 -18
-10 -22 1 -4 9 10 25 35 43 33 22 38 29 23 32 -11 2 -21 -2 -23 -8 -2 -7 -9
-6 -18 4 -8 8 -21 12 -29 9 -8 -4 -15 -1 -15 5 0 13 109 4 124 -10z m2242 -14
c4 -9 19 -15 40 -15 26 0 32 -3 28 -15 -4 -9 -19 -15 -35 -15 -33 0 -39 -15
-9 -23 11 -3 20 -12 20 -20 0 -12 -8 -11 -52 4 -46 15 -53 21 -49 41 7 52 44
79 57 43z m-2197 -110 c14 -39 7 -59 -16 -50 -10 3 -22 -3 -30 -15 -22 -31
-50 -25 -59 13 -12 48 -12 48 36 68 58 23 54 24 69 -16z m2115 -20 c-15 -23
-15 -25 1 -32 11 -4 22 0 30 10 18 25 26 21 19 -8 -5 -21 -3 -25 15 -25 20 0
25 9 22 38 -1 6 3 12 9 12 5 0 10 -4 10 -9 0 -16 -22 -71 -28 -71 -23 0 -102
36 -102 47 0 19 22 63 32 63 5 0 1 -11 -8 -25z m-2095 -99 c-29 -13 -20 -41
14 -41 43 0 36 -16 -20 -41 -44 -19 -53 -20 -53 -7 0 8 9 17 20 20 21 6 25 20
11 42 -6 10 -13 11 -29 2 -27 -14 -32 -14 -32 3 0 18 93 57 102 42 4 -6 -1
-15 -13 -20z m2139 -62 c1 -1 0 -8 -3 -16 -5 -12 -16 -13 -53 -7 -26 4 -52 8
-59 8 -7 1 -10 7 -7 14 3 8 19 11 47 9 l42 -4 -27 29 c-44 46 -33 51 14 8 24
-22 44 -40 46 -41z m-98 -76 c22 -13 40 -29 40 -35 0 -17 1 -17 -58 15 -29 16
-49 32 -45 35 10 11 22 8 63 -15z m-1950 -1 c0 -17 -59 -97 -71 -97 -16 0 -10
22 17 57 19 25 22 33 10 33 -9 0 -16 -6 -16 -12 0 -9 -3 -9 -9 1 -5 8 -18 12
-30 8 -12 -3 -21 -1 -21 3 0 5 19 11 43 13 23 2 50 4 60 5 9 1 17 -4 17 -11z
m1953 -104 c-3 -6 -10 -10 -16 -8 -7 3 -28 1 -47 -4 l-35 -7 33 -21 c19 -11
30 -23 25 -26 -11 -6 -105 58 -96 66 3 4 20 7 37 8 17 0 40 4 51 8 18 7 17 9
-13 25 -17 9 -32 21 -32 26 0 6 22 -4 49 -22 27 -18 47 -38 44 -45z m-1880 -7
c28 -45 37 -75 11 -41 -16 21 -14 21 -80 -22 -19 -12 -22 -12 -27 1 -4 10 7
22 33 37 41 23 48 33 30 44 -5 3 -10 10 -10 16 0 20 16 7 43 -35z m1789 -101
c12 -15 10 -22 -16 -52 -21 -25 -26 -26 -47 -15 -48 26 -73 52 -61 64 8 8 19
4 42 -16 35 -29 65 -34 74 -11 3 9 -9 26 -34 46 -22 18 -37 36 -34 41 5 8 55
-29 76 -57z m-1693 -79 c-15 -32 -8 -41 21 -26 40 21 41 5 3 -42 -24 -31 -41
-44 -47 -38 -7 7 -6 14 2 22 18 18 14 31 -8 25 -23 -6 -24 -3 -9 25 15 27 3
35 -21 13 -11 -10 -23 -15 -26 -12 -4 3 15 20 42 36 26 17 49 29 51 27 2 -2
-2 -15 -8 -30z m1551 -120 c-5 -5 -19 -2 -34 8 -25 16 -26 16 -16 -9 11 -28
11 -29 -24 -15 -30 11 -32 8 -10 -25 9 -14 14 -25 11 -25 -7 0 -67 82 -67 91
0 5 16 1 36 -7 35 -15 36 -14 29 3 -4 10 -10 28 -13 41 -4 21 -1 20 46 -15 31
-23 48 -41 42 -47z m-1426 -40 c-18 -56 -41 -72 -36 -24 3 33 -22 55 -43 38
-9 -7 -18 -10 -22 -6 -3 3 -4 7 -2 9 44 26 106 52 112 46 5 -4 1 -32 -9 -63z
m1285 -40 c22 -12 30 -21 23 -28 -7 -7 -17 -6 -32 2 -29 16 -54 -4 -45 -38 4
-15 2 -21 -5 -17 -5 3 -10 14 -10 23 -1 9 -7 34 -14 54 -15 42 -5 54 29 33 11
-6 35 -20 54 -29z m-1193 19 c-3 -8 -9 -21 -12 -29 -8 -21 26 -29 46 -11 31
28 33 -2 3 -42 -15 -21 -28 -40 -29 -42 -2 -1 -7 0 -13 4 -7 4 -6 14 5 30 14
22 14 24 -5 34 -16 9 -23 7 -35 -11 -11 -15 -19 -19 -26 -12 -7 7 0 24 21 52
30 41 57 57 45 27z m1087 -137 c-8 -14 -22 -8 -28 12 -7 22 -22 25 -44 11 -12
-8 -12 -13 2 -34 12 -19 13 -26 4 -30 -16 -6 -72 89 -58 97 5 4 16 -3 24 -14
12 -17 16 -18 32 -7 14 11 15 18 6 34 -8 16 -8 22 2 26 13 4 68 -83 60 -95z
m-935 -4 c-5 -56 -11 -70 -26 -60 -5 3 -6 26 -2 51 4 25 4 45 1 45 -3 0 -20
-13 -37 -30 -18 -16 -34 -26 -37 -23 -9 8 86 82 97 76 4 -3 6 -30 4 -59z m751
9 c-9 -23 -7 -30 10 -45 12 -9 27 -19 34 -21 9 -4 8 -8 -2 -15 -11 -8 -22 -5
-39 9 -29 23 -38 19 -23 -9 8 -15 7 -21 -3 -25 -18 -7 -59 94 -42 105 6 4 15
-4 22 -20 l11 -27 8 30 c10 38 14 45 25 45 6 0 5 -12 -1 -27z m-545 -29 c9 -3
16 -14 16 -23 -1 -14 -2 -14 -11 2 -10 17 -49 24 -49 9 0 -5 11 -19 25 -32 15
-14 25 -33 23 -45 -2 -16 -10 -20 -41 -19 -40 1 -67 18 -52 31 4 5 10 2 12 -4
5 -13 53 -19 53 -7 0 3 -11 20 -25 36 -20 24 -23 33 -14 44 12 15 37 18 63 8z
m451 -102 c-14 -3 -57 33 -49 41 2 2 -2 10 -11 17 -15 13 -19 1 -18 -62 0 -10
-5 -18 -10 -18 -13 0 2 113 16 122 6 3 27 -16 48 -45 25 -36 33 -53 24 -55z
m-314 15 c15 -52 15 -54 -3 -49 -10 2 -18 13 -18 23 0 29 -48 26 -60 -3 -5
-13 -9 -18 -9 -13 -1 6 9 33 21 61 29 65 48 59 69 -19z m91 38 c-3 -18 0 -25
12 -25 22 0 33 30 15 41 -11 7 -9 9 8 9 30 0 38 -17 22 -46 -10 -19 -10 -27
-1 -36 16 -16 15 -28 -3 -28 -8 0 -21 12 -29 28 l-15 27 -1 -26 c0 -15 -6 -29
-14 -32 -11 -5 -15 7 -18 54 -2 49 0 59 13 59 12 0 15 -7 11 -25z"/>
<path d="M1405 4975 c-392 -71 -731 -484 -834 -1016 -57 -293 -42 -615 43
-894 111 -369 340 -663 613 -787 367 -166 779 -24 1041 360 332 485 375 1191
106 1739 -215 438 -588 668 -969 598z m283 -41 c160 -32 351 -151 468 -291
202 -242 311 -528 345 -906 26 -286 -33 -622 -155 -882 -139 -296 -381 -518
-631 -581 -94 -23 -248 -23 -340 0 -308 78 -570 363 -704 762 -143 431 -110
949 87 1340 213 423 563 633 930 558z"/>
<path d="M1540 4935 c0 -6 -36 -16 -80 -21 -44 -6 -83 -14 -86 -17 -4 -3 4
-21 17 -39 20 -28 24 -45 24 -113 1 -80 9 -115 27 -115 5 0 8 -10 6 -22 -2
-16 -11 -24 -29 -26 -44 -5 -61 68 -40 176 9 48 -4 121 -24 128 -27 11 -225
-90 -225 -113 0 -8 -4 -12 -9 -9 -10 7 -131 -91 -131 -106 0 -5 -13 -21 -30
-34 -37 -32 -138 -182 -174 -260 -15 -32 -34 -70 -41 -84 -28 -55 -85 -253
-105 -365 -11 -64 -20 -121 -20 -125 0 -4 12 -11 28 -15 15 -3 57 -20 94 -36
55 -24 85 -30 165 -34 78 -4 91 -3 63 6 -128 38 -139 43 -209 105 -40 35 -78
64 -86 64 -8 0 -17 5 -20 11 -12 19 67 -1 140 -36 39 -18 88 -36 110 -40 22
-3 54 -9 70 -11 24 -4 19 1 -28 28 -85 50 -126 94 -163 174 -18 40 -44 80 -61
92 l-28 21 38 -11 c37 -11 58 -31 120 -111 18 -24 54 -49 101 -72 40 -19 76
-35 80 -35 3 0 -13 24 -38 54 -33 41 -51 78 -76 156 -38 117 -53 140 -112 169
-54 26 -20 28 37 2 52 -23 90 -68 130 -156 37 -82 71 -124 130 -165 57 -39 64
-38 26 5 -44 50 -70 106 -97 207 -31 115 -54 159 -123 232 l-56 59 54 -29 c82
-43 132 -98 165 -179 15 -38 43 -102 62 -141 19 -40 34 -79 34 -88 0 -10 15
-20 45 -27 25 -6 48 -15 51 -20 3 -5 10 -9 15 -9 6 0 7 5 4 10 -4 6 11 10 39
10 51 0 69 -15 30 -24 -41 -11 -136 -79 -185 -134 -86 -95 -129 -208 -129
-337 0 -145 47 -254 155 -363 66 -65 71 -73 54 -82 -24 -14 -45 -54 -54 -106
-6 -41 -33 -75 -67 -87 -23 -8 -23 -7 7 44 28 49 34 77 9 39 -23 -34 -96 -110
-107 -110 -4 0 3 19 17 43 26 44 61 155 53 164 -3 3 -17 -19 -31 -49 -14 -29
-46 -73 -71 -97 -25 -25 -49 -58 -54 -75 -9 -31 -9 -31 -10 9 -1 31 9 58 43
115 25 41 48 93 52 115 l7 40 -29 -26 c-16 -15 -48 -38 -71 -53 -29 -17 -48
-40 -62 -71 -18 -41 -64 -95 -81 -95 -4 0 3 21 16 47 13 25 24 53 24 60 0 29
39 89 70 107 17 10 40 32 51 50 22 36 26 64 7 49 -7 -6 -35 -18 -61 -28 -32
-12 -60 -33 -84 -62 -20 -24 -50 -51 -67 -60 -31 -16 -31 -15 -13 4 9 11 24
40 33 65 18 54 42 81 94 108 34 17 69 56 58 64 -2 2 -40 -3 -86 -9 -83 -13
-156 -47 -169 -81 -18 -48 204 -526 229 -494 2 3 27 34 55 70 l51 66 94 27
c135 39 128 41 128 -52 0 -71 -2 -80 -20 -86 -14 -4 -20 -15 -20 -35 0 -26 9
-33 96 -79 l97 -51 168 0 169 0 95 51 c86 46 95 53 95 79 0 21 -8 33 -30 47
-29 17 -30 20 -30 90 0 40 3 73 8 73 4 0 55 -15 115 -34 95 -30 115 -40 171
-90 l64 -56 19 27 c11 16 32 50 47 77 30 51 30 50 -16 76 -9 6 -28 35 -43 65
-18 40 -38 63 -68 82 -23 15 -54 38 -69 52 -21 19 -28 21 -28 9 0 -27 27 -91
64 -152 27 -44 36 -70 35 -100 -1 -41 -1 -41 -10 -11 -5 17 -33 56 -63 87 -30
32 -59 73 -66 92 -6 20 -15 36 -20 36 -14 0 9 -82 39 -142 22 -44 25 -56 13
-49 -20 11 -72 66 -95 101 -26 38 -20 10 8 -39 30 -52 30 -50 5 -44 -31 8 -70
61 -70 93 0 40 -18 77 -47 95 l-24 16 40 29 c95 69 171 202 192 336 20 134
-20 279 -109 391 -43 53 -140 126 -192 145 -44 15 -36 28 16 28 42 0 45 -1 33
-17 -11 -13 -5 -12 22 5 20 12 46 22 58 22 14 0 25 9 31 26 6 14 22 41 36 59
14 19 41 73 60 121 50 127 87 173 179 221 l50 25 -49 -43 c-54 -48 -81 -100
-116 -224 -28 -99 -51 -146 -102 -207 -21 -27 -36 -48 -33 -48 14 0 95 62 120
92 16 18 43 65 60 103 40 88 78 133 130 156 62 28 89 23 33 -7 -53 -27 -82
-74 -113 -179 -22 -77 -38 -107 -82 -156 -19 -21 -31 -39 -27 -39 5 0 43 17
84 38 55 27 83 48 107 82 52 73 77 98 103 105 l25 7 -22 -23 c-12 -13 -31 -49
-42 -80 -35 -92 -73 -134 -174 -190 -32 -18 -42 -28 -27 -25 14 3 51 10 82 15
38 7 75 22 108 45 34 23 68 38 101 42 27 4 49 9 49 13 0 8 -27 124 -41 174 -5
21 -14 35 -19 32 -6 -3 -7 1 -4 10 15 39 -105 292 -196 413 -61 81 -189 212
-208 212 -12 0 -74 -98 -98 -156 -9 -22 -20 -86 -24 -144 -9 -117 -32 -190
-60 -190 -23 0 -32 24 -24 66 4 22 2 34 -5 34 -7 0 -6 11 3 33 8 17 21 63 31
101 22 94 47 139 113 208 30 32 53 60 51 62 -18 17 -125 77 -168 95 l-55 23
-19 -23 c-17 -22 -19 -34 -12 -130 5 -87 4 -113 -9 -137 -15 -29 -18 -30 -46
-19 -32 12 -40 34 -16 43 21 8 34 51 39 132 3 54 10 81 26 102 11 16 21 31 21
34 0 2 -39 10 -87 17 -49 7 -91 17 -95 23 -5 7 -8 7 -8 1z m29 -132 c1 -27
-13 -36 -39 -28 -24 8 -25 17 -3 74 l17 44 12 -34 c7 -19 13 -44 13 -56z m-1
-49 c13 -4 22 -14 22 -25 0 -16 -8 -19 -50 -19 -38 0 -50 4 -50 15 0 9 10 20
23 25 28 11 27 11 55 4z m-352 -134 c50 -75 67 -110 79 -165 30 -134 17 -219
-25 -168 -19 24 -32 72 -51 192 -7 46 -23 97 -44 136 -32 59 -63 169 -35 120
7 -11 41 -63 76 -115z m369 70 c4 -6 -13 -10 -45 -10 -32 0 -49 4 -45 10 3 6
24 10 45 10 21 0 42 -4 45 -10z m25 -45 c0 -24 -2 -25 -70 -25 -68 0 -70 1
-70 25 0 24 2 25 70 25 68 0 70 -1 70 -25z m-543 -132 c61 -74 90 -122 118
-198 14 -38 33 -87 42 -108 18 -41 13 -51 -29 -61 -24 -6 -27 -3 -41 42 -9 26
-19 62 -22 80 -10 50 -53 149 -88 206 -43 67 -57 101 -57 134 0 25 1 24 19
-10 10 -21 36 -59 58 -85z m1036 90 c-4 -10 -28 -55 -55 -100 -39 -66 -52
-102 -68 -180 -28 -136 -50 -195 -70 -187 -8 4 -25 9 -37 11 -32 7 -35 27 -8
75 13 24 32 70 43 104 30 93 59 142 130 221 36 40 67 73 68 73 2 0 0 -8 -3
-17z m-525 -10 c-21 -2 -55 -2 -75 0 -21 2 -4 4 37 4 41 0 58 -2 38 -4z m61
-19 c26 -6 31 -11 31 -35 l0 -29 -126 0 -125 0 3 27 c2 19 10 29 28 34 33 9
149 11 189 3z m-26 -91 c-34 -2 -93 -2 -130 0 -37 2 -9 3 62 3 72 0 102 -1 68
-3z m115 -49 l3 -32 -185 2 -186 1 0 27 c0 35 7 36 205 34 l160 -1 3 -31z m2
-54 c0 -11 -148 -12 -285 -1 -78 7 -65 8 98 9 119 1 187 -2 187 -8z m28 -47
c-2 -16 -6 -27 -10 -25 -5 1 -100 2 -213 2 l-205 0 0 25 0 25 216 0 215 0 -3
-27z m-65 -40 c134 -12 62 -23 -155 -23 -136 0 -218 4 -212 9 5 5 23 11 39 14
50 7 255 7 328 0z m81 -39 c41 -6 46 -9 46 -33 l0 -26 -277 3 -278 2 -3 24
c-3 22 1 25 40 29 76 6 424 7 472 1z m-5 -72 c30 -4 56 -11 58 -17 2 -7 -98
-10 -287 -10 -189 0 -289 3 -287 10 2 6 21 13 43 16 53 8 406 9 473 1z m104
-50 c21 -9 27 -18 27 -42 l0 -30 -72 7 c-93 10 -528 10 -590 1 l-48 -8 0 35
c0 33 1 34 48 40 26 3 54 8 62 10 37 9 547 -2 573 -13z m-103 -73 c63 -6 120
-15 125 -21 7 -7 -2 -8 -30 -4 -97 14 -463 18 -563 7 -95 -11 -124 -10 -110 4
21 21 406 30 578 14z m-299 -45 l24 -27 -131 5 c-148 6 -205 22 -114 32 49 5
83 8 171 14 16 1 34 -7 50 -24z m139 20 c0 -14 -47 -43 -69 -44 -24 0 -61 25
-61 42 0 4 29 8 65 8 36 0 65 -3 65 -6z m270 -13 c12 -1 11 -4 -3 -12 -10 -6
-80 -13 -155 -16 l-137 -4 25 23 c24 22 29 23 140 16 63 -3 122 -7 130 -7z
m-222 -123 c7 -7 19 -25 27 -42 7 -17 14 -25 14 -18 1 7 -4 22 -9 33 -17 30
19 24 68 -11 36 -26 42 -35 42 -68 1 -31 2 -34 11 -19 6 10 8 25 5 33 -10 26
11 14 48 -27 38 -44 42 -61 26 -103 -14 -38 -1 -32 15 7 l14 32 20 -45 c11
-25 21 -57 21 -72 0 -15 5 -30 10 -33 13 -8 13 -122 0 -130 -8 -5 -8 -11 -1
-19 8 -9 6 -26 -5 -59 -18 -53 -26 -61 -74 -76 l-35 -11 37 3 c36 3 36 3 22
-23 -32 -59 -70 -85 -112 -76 -26 5 -26 5 2 -8 l29 -13 -43 -32 c-49 -35 -59
-37 -102 -15 -17 9 -27 11 -23 4 4 -6 17 -15 28 -19 21 -8 21 -8 2 -19 -11 -5
-40 -13 -65 -17 -41 -6 -48 -4 -73 21 -15 14 -27 22 -27 17 0 -6 7 -17 16 -24
14 -12 14 -14 -2 -19 -45 -16 -127 19 -137 59 -2 9 -3 3 -1 -12 3 -25 1 -27
-17 -22 -43 14 -89 48 -94 69 -2 11 -6 30 -8 41 -3 14 -5 12 -6 -7 0 -16 -5
-28 -10 -28 -13 0 -62 52 -71 75 -4 11 -3 33 1 49 11 39 3 47 -11 10 -10 -26
-13 -27 -24 -12 -7 9 -19 35 -26 58 -12 38 -12 43 9 70 23 33 18 40 -10 14
-17 -15 -19 -14 -25 10 -3 14 -4 43 -1 64 4 20 8 55 10 77 5 62 27 98 67 112
33 11 34 12 8 12 -34 1 -35 10 -6 47 33 42 49 53 83 55 27 1 28 2 7 8 -23 6
-23 7 -5 22 32 27 72 49 88 49 9 0 30 -7 48 -15 l32 -16 -28 24 -28 23 26 12
c46 21 96 15 129 -15 l30 -28 -17 27 c-9 15 -17 30 -17 34 0 10 103 -6 118
-18z m-304 -882 c34 -13 82 -27 107 -31 35 -5 50 -13 60 -31 16 -30 22 -30 38
0 10 18 25 25 65 31 28 3 78 17 112 31 33 13 65 24 70 24 16 0 67 -57 62 -70
-2 -7 -42 -27 -88 -46 -83 -34 -86 -34 -240 -34 -146 0 -161 2 -221 26 -35 15
-74 30 -87 35 -20 8 -21 12 -11 31 12 25 48 57 63 58 5 0 37 -11 70 -24z m196
-46 c0 -5 -4 -10 -10 -10 -5 0 -10 5 -10 10 0 6 5 10 10 10 6 0 10 -4 10 -10z
m-255 -58 c60 -25 95 -52 67 -52 -20 0 -146 58 -150 69 -6 17 8 14 83 -17z
m573 17 c-2 -6 -31 -22 -63 -36 -112 -46 -107 -45 -103 -27 2 10 31 28 73 44
78 31 98 35 93 19z m-18 -44 c0 -9 -28 -27 -66 -45 -75 -34 -84 -36 -84 -16 0
9 119 71 148 76 1 0 2 -7 2 -15z m-544 -19 c32 -13 60 -31 62 -40 5 -22 -7
-20 -77 10 -34 15 -61 33 -61 40 0 19 7 18 76 -10z m384 -1 c0 -13 -24 -15
-155 -15 -142 0 -168 4 -148 23 3 4 73 7 155 7 125 0 148 -2 148 -15z m140
-82 l0 -68 -70 -38 -70 -37 0 73 0 73 68 31 c37 17 68 32 70 32 1 1 2 -29 2
-66z m-457 10 c14 -5 17 -17 17 -80 0 -68 -2 -74 -17 -68 -10 4 -42 16 -70 27
l-53 21 0 73 0 74 53 -21 c28 -12 60 -24 70 -26z m265 41 c34 -5 52 -11 52
-20 0 -11 -31 -14 -155 -14 -123 0 -155 3 -155 13 0 8 3 17 7 20 8 9 181 9
251 1z m32 -124 l0 -81 -127 3 -128 3 -3 78 -3 77 131 0 130 0 0 -80z m200
-20 c18 -11 22 -8 -71 -58 -72 -39 -77 -40 -94 -24 -17 16 -17 16 -12 0 6 -17
-5 -18 -149 -18 -120 0 -155 3 -152 13 3 8 47 14 154 17 l149 6 65 37 c68 38
85 43 110 27z m-552 -36 c71 -26 86 -39 58 -50 -17 -6 -149 50 -154 65 -6 17
17 13 96 -15z m572 -11 c0 -12 -28 -33 -81 -61 -75 -40 -80 -41 -77 -21 2 16
23 34 73 61 80 43 85 44 85 21z m-596 -28 c58 -26 76 -39 76 -55 0 -18 -7 -16
-82 25 -75 40 -105 65 -80 65 5 0 44 -16 86 -35z m421 -60 c0 -19 -8 -20 -159
-23 -160 -3 -184 2 -173 33 6 13 28 15 169 13 155 -3 163 -4 163 -23z"/>
<path d="M1581 3870 c11 -31 33 -40 43 -17 3 6 4 3 3 -8 -4 -31 -56 -21 -89
18 -16 19 -27 26 -28 18 0 -12 -3 -12 -12 -3 -7 7 -28 12 -47 12 l-34 0 23
-25 c26 -27 46 -32 53 -12 3 7 6 5 6 -6 1 -10 -10 -22 -24 -27 -21 -8 -32 -5
-57 13 -19 13 -32 18 -35 11 -2 -6 -14 -9 -27 -7 -13 3 -34 0 -46 -7 l-22 -12
27 -14 c36 -19 59 -18 51 1 -3 8 -1 15 4 15 17 0 11 -29 -9 -49 -12 -12 -23
-16 -32 -10 -19 12 -72 11 -64 -1 3 -6 -4 -10 -18 -10 -13 0 -32 -8 -41 -19
-16 -17 -15 -19 15 -25 36 -7 53 0 45 20 -3 8 -1 14 4 14 13 0 13 -37 0 -45
-6 -4 -8 -10 -5 -15 3 -5 -14 -10 -37 -12 -26 -2 -43 -8 -43 -15 0 -7 -10 -20
-22 -28 -30 -21 -30 -45 1 -45 31 0 50 22 33 39 -10 11 -9 13 3 9 9 -3 15 -17
15 -35 1 -26 -5 -34 -37 -48 -23 -10 -35 -21 -32 -29 3 -8 1 -17 -5 -21 -6 -3
-11 -20 -11 -36 l0 -30 31 22 c30 21 31 23 13 37 -18 13 -18 14 1 10 12 -2 21
-13 23 -26 2 -12 8 -22 13 -22 5 0 -8 -16 -29 -35 -20 -19 -31 -35 -25 -35 8
0 11 -10 7 -30 -4 -16 -4 -37 0 -46 5 -14 9 -13 26 9 25 31 25 44 3 50 -16 4
-16 5 1 6 11 0 27 -7 36 -16 15 -16 14 -20 -5 -56 -15 -29 -17 -41 -7 -44 6
-3 12 -14 12 -26 0 -12 7 -31 15 -41 14 -18 15 -18 25 9 14 36 6 57 -16 48
-12 -4 -15 -3 -10 5 10 17 36 15 42 -3 5 -12 10 -13 20 -4 17 14 17 13 5 -29
-11 -35 -5 -66 10 -56 5 3 9 -1 9 -9 0 -13 40 -57 52 -57 5 0 0 42 -8 69 -3
11 -7 11 -19 1 -11 -9 -15 -9 -15 -1 0 18 29 25 45 11 10 -9 15 -9 15 -1 0 6
5 11 11 11 5 0 8 -4 5 -8 -8 -14 14 -83 24 -77 5 3 18 -3 30 -15 11 -11 29
-20 39 -20 17 0 18 3 8 30 -10 26 -16 30 -35 25 -17 -4 -23 -2 -20 7 3 7 17
13 31 13 14 -1 23 3 21 7 -3 4 -1 8 4 8 4 0 16 -15 25 -34 11 -24 23 -34 39
-34 13 -1 38 -4 56 -8 38 -7 41 4 9 34 -27 26 -37 28 -37 7 0 -8 -5 -15 -11
-15 -20 0 -4 35 19 38 12 2 20 8 17 13 -11 17 7 9 37 -16 31 -26 54 -34 42
-14 -5 9 1 10 20 5 14 -3 36 -2 47 5 20 10 20 11 2 24 -25 20 -53 19 -53 -2 0
-14 -2 -15 -12 -4 -11 10 -9 16 9 30 12 10 19 22 15 26 -4 5 2 5 13 0 36 -14
67 -18 74 -9 3 5 19 16 35 24 44 23 44 40 1 40 -32 0 -37 -3 -32 -20 6 -24
-11 -27 -20 -4 -4 10 0 22 9 28 8 6 13 17 11 24 -3 7 1 10 11 6 20 -8 66 3 66
16 0 5 11 20 25 34 33 33 32 48 -2 40 -37 -9 -52 -23 -34 -33 8 -5 9 -11 3
-15 -17 -10 -36 22 -23 38 9 11 9 15 -1 19 -9 3 -6 7 7 12 44 15 65 29 61 40
-2 6 2 19 10 30 16 21 19 55 5 55 -5 0 -19 -9 -32 -20 -20 -16 -22 -21 -9 -29
8 -6 11 -13 7 -17 -12 -12 -36 17 -34 41 1 13 10 30 21 38 20 15 31 93 15 118
-7 11 -12 9 -26 -11 -21 -29 -23 -46 -5 -42 6 1 12 -2 12 -8 0 -19 -32 -10
-37 10 -3 11 -9 20 -14 20 -5 0 0 17 11 38 17 31 18 38 6 40 -8 2 -12 10 -9
18 3 8 -3 26 -12 41 l-17 26 -14 -32 c-15 -37 -11 -53 11 -44 8 3 15 0 15 -6
0 -17 -28 -13 -48 7 -13 13 -17 29 -14 55 3 29 1 37 -12 37 -9 0 -16 6 -16 13
0 14 -31 47 -43 47 -4 0 -7 -16 -7 -36 0 -32 3 -36 21 -31 12 3 19 1 16 -6 -6
-18 -24 -19 -41 -2 -9 9 -16 13 -17 8 0 -4 -5 8 -12 27 -7 19 -17 35 -23 35
-6 0 -18 8 -28 18 -10 9 -26 17 -36 17 -17 0 -18 -4 -9 -30z m102 -93 c151
-69 225 -247 166 -402 -45 -121 -168 -205 -299 -205 -173 0 -320 144 -320 314
0 236 239 391 453 293z"/>
<path d="M1540 3760 c0 -5 13 -10 28 -10 83 0 185 -70 223 -153 26 -59 26
-163 -2 -222 -40 -84 -149 -155 -239 -155 -53 0 -127 30 -172 70 -156 137
-103 384 96 450 59 20 60 20 17 16 -55 -6 -133 -57 -171 -114 -148 -222 71
-502 326 -415 70 24 147 103 168 173 21 71 20 118 -4 184 -24 63 -82 126 -143
154 -50 24 -127 37 -127 22z"/>
<path d="M1476 3705 c-92 -32 -146 -101 -153 -198 -5 -58 -2 -73 21 -122 84
-171 328 -171 411 0 52 106 21 228 -74 292 -35 24 -109 48 -118 39 -3 -3 4
-18 16 -34 27 -38 27 -87 1 -109 -27 -23 -25 -28 11 -43 17 -7 37 -24 46 -37
14 -21 14 -25 -1 -47 -9 -14 -27 -26 -43 -28 -26 -3 -28 -6 -31 -57 -2 -40 0
-52 10 -49 7 3 13 16 14 30 1 35 12 48 38 48 56 0 58 -67 3 -100 -82 -50 -217
-2 -217 76 0 34 46 82 86 90 41 7 43 19 9 50 -14 13 -25 30 -25 39 0 9 11 27
25 41 19 19 25 35 25 67 0 61 -7 68 -54 52z"/>
<path d="M1486 3384 c-19 -18 -8 -47 24 -64 19 -10 20 -7 20 35 0 49 -15 59
-44 29z"/>
<path d="M1139 3553 c-13 -15 -12 -15 11 -3 34 17 36 20 18 20 -9 0 -22 -7
-29 -17z"/>
<path d="M1940 3555 c-7 -9 -11 -18 -8 -20 3 -3 11 1 18 10 7 9 11 18 8 20 -3
3 -11 -1 -18 -10z"/>
<path d="M1924 3405 c-10 -8 -14 -15 -8 -15 5 0 19 7 30 15 10 8 14 15 8 15
-5 0 -19 -7 -30 -15z"/>
<path d="M2395 3881 c-22 -10 -58 -40 -79 -66 -25 -31 -59 -57 -95 -73 l-56
-26 50 -8 c52 -8 102 -2 122 14 7 5 38 18 70 27 l58 18 -3 44 c-3 56 -10 89
-20 89 -4 0 -25 -9 -47 -19z"/>
<path d="M615 3704 c-4 -36 -4 -69 1 -73 5 -5 49 -18 97 -30 86 -22 90 -22
144 -5 62 20 62 19 -41 49 -46 13 -73 29 -116 71 -31 30 -62 54 -68 54 -6 0
-14 -30 -17 -66z"/>
<path d="M2444 3749 c-12 -4 -39 -25 -60 -47 -45 -46 -91 -72 -131 -73 -15 -1
-39 -4 -53 -8 -22 -6 -18 -9 30 -24 54 -17 57 -17 148 7 52 13 95 26 97 28 1
2 0 31 -4 64 -6 58 -7 61 -27 53z"/>
<path d="M2396 3575 c-63 -41 -86 -50 -155 -57 -23 -3 -22 -4 12 -23 33 -17
44 -18 122 -8 47 5 88 12 90 15 10 9 17 118 8 118 -5 0 -40 -20 -77 -45z"/>
<path d="M615 3503 c4 -60 10 -111 14 -115 4 -5 34 -11 66 -14 69 -7 132 7
167 37 l23 20 -41 -5 c-23 -3 -66 1 -98 9 -56 15 -121 43 -114 50 1 2 39 -2
84 -7 79 -11 81 -11 120 15 l39 27 -40 0 c-44 0 -135 34 -183 68 -16 12 -33
22 -37 22 -4 0 -4 -48 0 -107z"/>
<path d="M2380 3454 c-64 -30 -83 -34 -125 -29 -45 5 -48 4 -31 -9 24 -19 102
-36 174 -37 l57 -1 -60 -20 c-65 -21 -143 -27 -188 -15 -21 6 -28 5 -25 -4 5
-16 20 -24 92 -50 37 -14 72 -36 97 -61 46 -48 51 -68 9 -38 -16 11 -42 25
-57 30 -30 11 -163 29 -163 23 0 -19 29 -47 69 -68 39 -19 53 -34 70 -72 12
-26 28 -60 36 -75 23 -45 -3 -34 -59 26 -51 54 -166 118 -166 93 0 -24 39 -75
72 -95 34 -21 42 -35 84 -146 11 -27 25 -51 31 -53 12 -4 60 90 66 127 1 8 6
20 10 27 41 66 120 485 91 482 -5 -1 -43 -17 -84 -35z"/>
<path d="M630 3353 c0 -10 7 -53 15 -96 8 -43 15 -82 15 -85 0 -3 23 17 50 45
36 37 68 58 108 72 70 26 85 34 90 51 3 9 -1 11 -13 6 -63 -24 -166 -16 -252
20 -8 4 -13 -2 -13 -13z"/>
<path d="M1175 2400 c-4 -7 121 -10 369 -10 239 0 377 4 381 10 4 7 -121 10
-369 10 -239 0 -377 -4 -381 -10z"/>
<path d="M1256 2349 c7 -13 573 -9 580 3 3 5 -128 8 -291 8 -211 0 -294 -3
-289 -11z"/>
<path d="M515 4680 c-3 -5 -2 -10 4 -10 5 0 13 5 16 10 3 6 2 10 -4 10 -5 0
-13 -4 -16 -10z"/>
<path d="M2650 3015 c0 -8 2 -15 4 -15 2 0 11 -3 20 -6 12 -4 16 0 16 15 0 14
-6 21 -20 21 -11 0 -20 -7 -20 -15z"/>
<path d="M457 2934 c-9 -10 2 -24 19 -24 8 0 14 7 14 15 0 15 -21 21 -33 9z"/>
<path d="M418 2919 c-24 -13 -23 -39 1 -39 20 0 37 28 24 41 -4 4 -16 3 -25
-2z"/>
<path d="M865 2260 c-3 -5 -3 -15 1 -21 6 -11 23 6 24 24 0 10 -18 9 -25 -3z"/>
<path d="M2120 2175 c0 -9 5 -15 11 -13 6 2 11 8 11 13 0 5 -5 11 -11 13 -6 2
-11 -4 -11 -13z"/>
<path d="M1436 1975 c-3 -9 0 -15 9 -15 8 0 15 7 15 15 0 8 -4 15 -9 15 -5 0
-11 -7 -15 -15z"/>
<path d="M10257 4133 c10 -36 10 -799 0 -835 l-7 -28 125 0 126 0 -13 23 c-10
17 -13 102 -13 357 l0 335 70 3 c93 4 141 -10 165 -51 27 -44 25 -89 -5 -126
-31 -36 -48 -42 -146 -50 l-75 -6 78 -215 c46 -127 77 -226 75 -242 l-4 -28
139 0 139 0 -19 28 c-30 42 -76 138 -113 236 -32 85 -33 90 -15 100 86 52 107
70 133 113 24 42 28 58 28 128 0 124 -49 200 -164 254 -54 25 -62 26 -284 29
l-228 3 8 -28z"/>
<path d="M10992 4138 c19 -33 19 -813 0 -845 l-13 -23 127 0 126 0 -8 23 c-11
31 -17 494 -6 482 5 -5 51 -112 103 -237 51 -126 96 -228 99 -228 3 0 47 103
99 228 51 125 98 232 103 237 15 16 6 -455 -10 -482 l-13 -23 126 0 125 0 -7
28 c-10 36 -10 799 0 835 l8 28 -113 -3 -113 -3 -100 -227 c-55 -125 -102
-229 -105 -232 -3 -2 -50 100 -106 227 l-100 232 -118 3 -117 3 13 -23z"/>
<path d="M11916 4138 c4 -13 10 -171 13 -353 l6 -330 31 -55 c34 -61 100 -112
167 -131 23 -7 80 -12 127 -11 109 0 186 27 246 87 69 69 74 99 74 444 1 221
4 306 14 334 l14 37 -130 0 -129 0 13 -22 c10 -17 13 -95 13 -313 0 -325 -4
-347 -61 -371 -68 -29 -142 -8 -165 47 -19 47 -21 602 -1 637 l13 22 -127 0
-126 0 8 -22z"/>
</g>
</svg>
